#!OML:ASF H:\Terrain\Patient Classification 1\Walking\steve\steve.ASF
:FULLY-SPECIFIED
:DEGREES
92
root 7.70462 15.9815 -10.5066 5.26783 -0.489427 4.85146
lowerback 2.19062 0.122747 -6.43928
upperback -3.1219 -0.129489 -0.323349
thorax -4.4631 0.145329 3.28224
lowerneck -9.59225 -1.12993 -2.05243
upperneck 15.6733 -1.85824 3.85815
head 6.39427 -0.710646 1.41458
rclavicle -7.18692e-015 1.13307e-014
rhumerus -69.889 -33.6994 -40.4661
rradius 15.5605
rwrist 41.4174
rhand 174.945 -68.9553
rfingers 7.12502
rthumb -159.26 -40.0436
lclavicle -7.18692e-015 1.13307e-014
lhumerus -17.445 -4.77591 85.4073
lradius 37.5079
lwrist 16.4876
lhand -23.477 -15.4969
lfingers 7.12502
lthumb 2.98241 14.462
rfemur -41.1619 -0.984698 19.7122
rtibia 38.4791
rfoot -14.2651 2.68035
rtoes -6.19929
lfemur 2.32295 4.5672 -28.5642
ltibia 16.9746
lfoot -12.8379 -12.7291
ltoes 1.59999
93
root 7.69455 15.9713 -10.2663 5.34833 0.154019 4.71135
lowerback 2.13235 -0.121463 -6.31365
upperback -3.00498 -0.441514 -0.335521
thorax -4.27412 -0.0225776 3.21702
lowerneck -9.92288 -1.10761 -1.69343
upperneck 15.7511 -1.85846 3.69334
head 6.47236 -0.698748 1.30162
rclavicle 5.47163e-015 -7.15625e-015
rhumerus -71.7047 -34.0048 -38.2734
rradius 15.6587
rwrist 42.4403
rhand 175.329 -69.0649
rfingers 7.12502
rthumb -158.89 -40.1941
lclavicle 5.47163e-015 -7.15625e-015
lhumerus -16.2546 -5.50991 84.9798
lradius 39.3286
lwrist 17.9371
lhand -24.2782 -15.3689
lfingers 7.12502
lthumb 2.2087 14.5994
rfemur -41.1445 -0.918126 19.6789
rtibia 34.8438
rfoot -13.5727 3.16406
rtoes -6.01865
lfemur 4.10404 4.43135 -28.1425
ltibia 15.2569
lfoot -11.8219 -13.236
ltoes 3.59547
94
root 7.68344 15.9628 -10.0276 5.41904 0.718277 4.76263
lowerback 2.09113 -0.308455 -6.45265
upperback -2.96702 -0.689131 -0.252515
thorax -4.18409 -0.143466 3.39457
lowerneck -9.91565 -1.22959 -2.0436
upperneck 15.7116 -2.00447 3.92299
head 6.46819 -0.771768 1.42049
rclavicle -7.237e-016 2.5842e-015
rhumerus -72.9076 -33.5191 -37.1118
rradius 15.9438
rwrist 41.9466
rhand 175.379 -69.0452
rfingers 7.12502
rthumb -158.842 -40.1797
lclavicle -7.237e-016 2.5842e-015
lhumerus -15.1585 -6.19157 84.7664
lradius 40.9645
lwrist 19.0182
lhand -25.243 -15.5179
lfingers 7.12502
lthumb 1.27684 14.4581
rfemur -41.1578 -0.529074 19.2521
rtibia 31.5621
rfoot -13.4663 3.02497
rtoes -7.47493
lfemur 6.03687 4.50072 -27.9248
ltibia 13.2005
lfoot -10.7152 -13.5212
ltoes 4.81351
95
root 7.67805 15.9656 -9.7898 5.71184 1.41601 4.82947
lowerback 1.94363 -0.471535 -6.44899
upperback -3.11492 -0.896464 -0.126916
thorax -4.23129 -0.239509 3.5334
lowerneck -9.31076 -1.20746 -2.71596
upperneck 15.1891 -1.94631 4.46822
head 6.20595 -0.750329 1.71058
rclavicle 3.37313e-015 1.59028e-015
rhumerus -73.9593 -32.7669 -36.0809
rradius 16.1622
rwrist 40.4494
rhand 175.09 -68.9811
rfingers 7.12502
rthumb -159.12 -40.0848
lclavicle 3.37313e-015 1.59028e-015
lhumerus -14.0368 -7.12856 84.6574
lradius 42.2959
lwrist 20.1484
lhand -25.5007 -15.6572
lfingers 7.12502
lthumb 1.02802 14.32
rfemur -41.4748 -0.207236 18.6816
rtibia 28.8589
rfoot -13.6507 2.56257
rtoes -7.91097
lfemur 8.0597 4.55295 -27.7291
ltibia 10.3976
lfoot -9.24488 -13.5541
ltoes 4.19342
96
root 7.67325 15.9613 -9.54833 6.0806 2.14409 5.04303
lowerback 1.78148 -0.70084 -6.65561
upperback -3.26134 -1.20062 -0.0343455
thorax -4.25542 -0.378081 3.75987
lowerneck -8.96613 -1.11418 -2.81839
upperneck 14.7471 -1.7789 4.37421
head 6.00033 -0.689259 1.70977
rclavicle -1.52851e-014 2.0276e-014
rhumerus -74.9698 -32.2635 -34.8416
rradius 16.3126
rwrist 39.3708
rhand 174.938 -68.9532
rfingers 7.12502
rthumb -159.266 -40.0408
lclavicle -1.52851e-014 2.0276e-014
lhumerus -12.8684 -8.07282 84.3921
lradius 43.5242
lwrist 21.5204
lhand -25.3656 -15.5251
lfingers 7.12502
lthumb 1.15845 14.4515
rfemur -42.1131 -0.363693 18.1953
rtibia 26.847
rfoot -13.911 2.31314
rtoes -8.79798
lfemur 10.8718 3.48572 -27.8821
ltibia 5.9783
lfoot -7.56674 -12.2702
ltoes 3.07329
97
root 7.6682 15.9385 -9.30911 6.26416 2.7037 5.49449
lowerback 1.68037 -0.848856 -7.09807
upperback -3.19845 -1.40573 -0.0699971
thorax -4.10311 -0.473243 3.97796
lowerneck -8.98192 -1.0907 -2.68154
upperneck 14.3985 -1.72711 4.19232
head 5.88906 -0.672227 1.63177
rclavicle -4.82208e-015 1.39149e-014
rhumerus -76.3156 -32.4482 -32.8984
rradius 16.3941
rwrist 39.5209
rhand 175.039 -68.9984
rfingers 7.12502
rthumb -159.169 -40.0966
lclavicle -4.82208e-015 1.39149e-014
lhumerus -11.693 -9.27068 84.0307
lradius 45.0279
lwrist 22.9329
lhand -26.1323 -15.7458
lfingers 7.12502
lthumb 0.417919 14.2336
rfemur -42.8052 -0.98835 17.8378
rtibia 25.4357
rfoot -14.0718 3.17612
rtoes -9.35953
lfemur 14.6903 2.60278 -28.3754
ltibia 1.59028e-014
lfoot -4.86627 -10.6838
ltoes 3.5882
